<svg width="186" height="30" viewBox="0 0 186 30" version="1.1" xmlns="http://www.w3.org/2000/svg" xmlns:xlink="http://www.w3.org/1999/xlink">
<title>LOGO2</title>
<desc>Created using Figma</desc>
<g id="Canvas" transform="translate(-6340 -2300)">
<g id="LOGO2">
<g id="Type">
<g id="Template">
<use xlink:href="#path0_fill" transform="translate(6388.34 2306.73)" fill="#FFFFFF"/>
</g>
<g id="Monster">
<use xlink:href="#path1_fill" transform="translate(6462.94 2306.73)" fill="#FFFFFF"/>
</g>
</g>
<g id="Mark">
<g id="Fill-1">
<use xlink:href="#path2_fill" transform="translate(6351.25 2309.75)" fill="#FFFFFF"/>
</g>
<g id="Fill-3">
<use xlink:href="#path3_fill" transform="translate(6340 2300)" fill="#FFFFFF"/>
</g>
</g>
</g>
</g>
<defs>
<path id="path0_fill" fill-rule="evenodd" d="M 68.4211 5.28687C 67.8005 5.28687 67.3416 5.47133 67.0431 5.84155C 66.7446 6.21304 66.565 6.70835 66.5049 7.3275L 69.8995 7.3275C 69.9481 6.67133 69.8478 6.16708 69.5979 5.8141C 69.3492 5.4624 68.9568 5.28687 68.4211 5.28687ZM 71.8164 11.975C 71.4508 12.2667 70.9548 12.5131 70.3278 12.7141C 69.702 12.9139 69.0354 13.0148 68.3297 13.0148C 66.8577 13.0148 65.7807 12.5865 65.0993 11.7299C 64.4173 10.8727 64.0767 9.69627 64.0767 8.20266C 64.0767 6.59925 64.4602 5.39542 65.2272 4.59372C 65.9935 3.79138 67.0706 3.38989 68.4582 3.38989C 68.9197 3.38989 69.3697 3.45181 69.8081 3.57245C 70.246 3.69436 70.6359 3.89542 70.9766 4.17372C 71.3172 4.45457 71.5914 4.82989 71.7979 5.30351C 72.005 5.7784 72.1085 6.36819 72.1085 7.07159C 72.1085 7.32755 72.0926 7.60074 72.0625 7.89308C 72.0318 8.18479 71.9865 8.48798 71.9257 8.80457L 66.4499 8.80457C 66.4864 9.56925 66.6845 10.1469 67.0431 10.5356C 67.4016 10.9237 67.9827 11.1197 68.7855 11.1197C 69.2853 11.1197 69.7321 11.0431 70.1277 10.8912C 70.5234 10.7386 70.8244 10.5841 71.0309 10.4265L 71.8164 11.975ZM 57.1958 3.64657L 58.455 3.64657L 58.455 1.9321L 60.8276 1.25806L 60.8276 3.64657L 63.0545 3.64657L 63.0545 5.65018L 60.8276 5.65018L 60.8276 9.15125C 60.8276 9.78189 60.8915 10.2351 61.0193 10.5083C 61.1472 10.7821 61.3882 10.9187 61.741 10.9187C 61.9839 10.9187 62.1935 10.8938 62.3699 10.8453C 62.5463 10.7968 62.7445 10.724 62.9631 10.6276L 63.383 12.4493C 63.0545 12.6083 62.671 12.7423 62.2331 12.8508C 61.7953 12.9593 61.3511 13.0149 60.9011 13.0149C 60.0612 13.0149 59.4444 12.7991 59.0481 12.3683C 58.6525 11.9361 58.455 11.2289 58.455 10.2447L 58.455 5.65018L 57.1958 5.65018L 57.1958 3.64657ZM 52.0485 10.9545C 52.5228 10.9545 52.9005 10.8492 53.1798 10.6367C 53.4598 10.4241 53.6669 10.1956 53.8011 9.95304L 53.8011 8.76772C 53.424 8.7307 53.0616 8.7256 52.7145 8.74921C 52.3674 8.77411 52.0606 8.82836 51.7928 8.91389C 51.525 8.99815 51.3122 9.1207 51.1536 9.27836C 50.9964 9.43602 50.9165 9.63645 50.9165 9.879C 50.9165 10.2192 51.0175 10.4847 51.2182 10.6718C 51.4183 10.8607 51.6957 10.9545 52.0485 10.9545ZM 49.0373 4.1738C 49.5238 3.95551 50.1016 3.78253 50.7708 3.65487C 51.44 3.52785 52.1393 3.46338 52.8698 3.46338C 53.5026 3.46338 54.0319 3.53997 54.4576 3.69061C 54.8839 3.84253 55.222 4.05955 55.4706 4.33912C 55.7199 4.61742 55.8963 4.95253 55.9999 5.34061C 56.1041 5.72997 56.1558 6.16721 56.1558 6.65359C 56.1558 7.18849 56.1373 7.72529 56.1002 8.26593C 56.0644 8.80721 56.0427 9.33891 56.037 9.86104C 56.0306 10.3832 56.0459 10.8913 56.0817 11.3834C 56.1181 11.8755 56.2102 12.3402 56.3559 12.7768L 54.4211 12.7768L 54.0376 11.52L 53.9469 11.52C 53.704 11.8966 53.3658 12.2221 52.9338 12.4953C 52.5017 12.7685 51.945 12.9051 51.2636 12.9051C 50.8379 12.9051 50.4544 12.8419 50.1137 12.7142C 49.773 12.5866 49.4809 12.404 49.2374 12.1666C 48.9945 11.9304 48.806 11.6502 48.6717 11.3285C 48.5375 11.0068 48.4717 10.6442 48.4717 10.2447C 48.4717 9.68551 48.5957 9.2138 48.8456 8.8321C 49.0949 8.44849 49.4541 8.13891 49.9226 7.90146C 50.3905 7.66529 50.9504 7.50125 51.6017 7.40998C 52.253 7.3187 52.9791 7.29125 53.7826 7.32763C 53.8682 6.64657 53.8184 6.15827 53.6369 5.86019C 53.4534 5.56274 53.0463 5.41402 52.4128 5.41402C 51.9392 5.41402 51.4368 5.46253 50.9076 5.56019C 50.3783 5.65657 49.9431 5.78423 49.603 5.94253L 49.0373 4.1738ZM 46.1716 9.69638C 46.1716 10.1221 46.2259 10.4317 46.3359 10.6277C 46.4458 10.8217 46.6216 10.9187 46.8645 10.9187C 47.0108 10.9187 47.154 10.9072 47.294 10.8823C 47.434 10.8574 47.6078 10.8038 47.8143 10.7183L 48.0693 12.5764C 47.875 12.6734 47.5771 12.7723 47.1757 12.8694C 46.7743 12.9664 46.3595 13.0149 45.9345 13.0149C 45.2403 13.0149 44.7111 12.8534 44.3461 12.5323C 43.9811 12.2094 43.7983 11.6789 43.7983 10.9372L 43.7983 0L 46.1716 0L 46.1716 9.69638ZM 37.9397 5.39551C 37.4769 5.39551 37.1152 5.51168 36.8537 5.7421C 36.5923 5.97317 36.3884 6.31849 36.2427 6.78061L 36.2427 10.5721C 36.4127 10.7061 36.5981 10.8121 36.7988 10.8913C 36.9995 10.9698 37.2641 11.0093 37.5933 11.0093C 38.2746 11.0093 38.7853 10.7693 39.1254 10.29C 39.4667 9.80998 39.6373 9.01721 39.6373 7.9104C 39.6373 7.10806 39.5031 6.48891 39.2359 6.05168C 38.9681 5.61508 38.536 5.39551 37.9397 5.39551ZM 33.8691 3.64649L 35.6026 3.64649L 35.8768 4.73989L 35.9497 4.73989C 36.2667 4.27713 36.6406 3.93755 37.072 3.71798C 37.5048 3.50032 38.0302 3.38989 38.6515 3.38989C 39.7949 3.38989 40.6533 3.75245 41.2248 4.475C 41.7968 5.19691 42.0832 6.36181 42.0832 7.96521C 42.0832 8.74394 41.9911 9.44479 41.809 10.071C 41.6262 10.6971 41.3558 11.2288 40.9966 11.6654C 40.638 12.1027 40.1995 12.4371 39.6824 12.6682C 39.1653 12.8993 38.5722 13.0148 37.903 13.0148C 37.5259 13.0148 37.2152 12.9867 36.9723 12.9318C 36.7288 12.8782 36.4853 12.7895 36.2424 12.6682L 36.2424 16.4048L 33.8691 16.4048L 33.8691 3.64649ZM 24.3593 12.7601L 24.3593 7.80117C 24.3593 6.96245 24.2801 6.36819 24.1216 6.01521C 23.9643 5.66351 23.6358 5.48606 23.136 5.48606C 22.7224 5.48606 22.3881 5.59904 22.1318 5.82372C 21.8768 6.04776 21.6825 6.33628 21.5482 6.68925L 21.5482 12.7601L 19.1763 12.7601L 19.1763 3.64649L 21.019 3.64649L 21.2926 4.8484L 21.3654 4.8484C 21.6454 4.45968 22.0021 4.12011 22.4335 3.8284C 22.8662 3.53606 23.423 3.38989 24.1043 3.38989C 24.6879 3.38989 25.1653 3.50925 25.5367 3.74606C 25.9074 3.98351 26.197 4.38117 26.4034 4.94032C 26.6834 4.4667 27.0426 4.08947 27.4804 3.80989C 27.9183 3.53032 28.4481 3.38989 29.0681 3.38989C 29.5795 3.38989 30.0148 3.45181 30.3733 3.57245C 30.7326 3.69436 31.0247 3.90308 31.2497 4.20117C 31.4746 4.49925 31.6421 4.89691 31.7514 5.39542C 31.8613 5.89266 31.9157 6.52521 31.9157 7.29117L 31.9157 12.7601L 29.5431 12.7601L 29.5431 7.63776C 29.5431 6.92096 29.467 6.38287 29.3149 6.02415C 29.1634 5.66606 28.8253 5.48606 28.3018 5.48606C 27.8761 5.48606 27.5386 5.60159 27.2887 5.83266C 27.0394 6.06372 26.8534 6.38032 26.732 6.78053L 26.732 12.7601L 24.3593 12.7601ZM 13.81 5.28687C 13.1887 5.28687 12.7297 5.47133 12.4319 5.84155C 12.1334 6.21304 11.9538 6.70835 11.8931 7.3275L 15.2877 7.3275C 15.3363 6.67133 15.2366 6.16708 14.9867 5.8141C 14.7374 5.4624 14.3449 5.28687 13.81 5.28687ZM 17.2045 11.975C 16.8389 12.2667 16.3435 12.5131 15.7171 12.7141C 15.0907 12.9139 14.4241 13.0148 13.7178 13.0148C 12.2457 13.0148 11.1694 12.5865 10.4874 11.7299C 9.80601 10.8727 9.46533 9.69627 9.46533 8.20266C 9.46533 6.59925 9.84884 5.39542 10.6152 4.59372C 11.3822 3.79138 12.4586 3.38989 13.8462 3.38989C 14.3084 3.38989 14.759 3.45181 15.1962 3.57245C 15.6347 3.69436 16.0239 3.89542 16.3646 4.17372C 16.7059 4.45457 16.9795 4.82989 17.1859 5.30351C 17.393 5.7784 17.4966 6.36819 17.4966 7.07159C 17.4966 7.32755 17.4806 7.60074 17.4512 7.89308C 17.4211 8.18479 17.3745 8.48798 17.3138 8.80457L 11.838 8.80457C 11.875 9.56925 12.0725 10.1469 12.4317 10.5356C 12.7903 10.9237 13.3713 11.1197 14.1741 11.1197C 14.6733 11.1197 15.1201 11.0431 15.5164 10.8912C 15.9121 10.7386 16.2131 10.5841 16.4196 10.4265L 17.2045 11.975ZM 9.96602 2.22447L 6.24283 2.22447L 6.24283 12.7602L 3.74237 12.7602L 3.74237 2.22447L 0 2.22447L 0 0L 9.96602 0L 9.96602 2.22447Z"/>
<path id="path1_fill" fill-rule="evenodd" d="M 62.6796 5.86908C 62.3025 5.73568 61.9611 5.66865 61.6569 5.66865C 61.2312 5.66865 60.8758 5.78099 60.5895 6.00631C 60.3031 6.23163 60.112 6.51951 60.0142 6.87185L 60.0142 12.7601L 57.6416 12.7601L 57.6416 3.64653L 59.485 3.64653L 59.7592 4.8478L 59.8321 4.8478C 60.0391 4.39908 60.3191 4.05248 60.6719 3.80993C 61.0241 3.56738 61.4383 3.44482 61.9126 3.44482C 62.2283 3.44482 62.5882 3.51248 62.9896 3.64653L 62.6796 5.86908ZM 52.2751 5.28687C 51.6545 5.28687 51.1956 5.47133 50.8971 5.84155C 50.5992 6.21304 50.4202 6.70772 50.3589 7.3275L 53.7542 7.3275C 53.8028 6.67133 53.7018 6.16708 53.4525 5.8141C 53.2032 5.4624 52.8108 5.28687 52.2751 5.28687ZM 55.6709 11.975C 55.3053 12.2661 54.8087 12.5131 54.1829 12.7141C 53.5559 12.9139 52.8899 13.0148 52.1836 13.0148C 50.7116 13.0148 49.6346 12.5865 48.9532 11.7299C 48.2712 10.8727 47.9312 9.69627 47.9312 8.20266C 47.9312 6.59925 48.314 5.39542 49.081 4.59372C 49.8474 3.79138 50.9244 3.38989 52.3121 3.38989C 52.7742 3.38989 53.2248 3.45181 53.662 3.57245C 54.1011 3.69436 54.4897 3.89542 54.8304 4.17372C 55.1711 4.45457 55.4453 4.82989 55.6524 5.30351C 55.8588 5.7784 55.9624 6.36819 55.9624 7.07159C 55.9624 7.32755 55.947 7.60074 55.9164 7.89308C 55.8863 8.18479 55.8409 8.48734 55.7796 8.80457L 50.3044 8.80457C 50.3402 9.56925 50.5383 10.1469 50.8969 10.5356C 51.2561 10.9237 51.8378 11.1197 52.6406 11.1197C 53.1392 11.1197 53.5859 11.0431 53.9816 10.8912C 54.3772 10.7386 54.6783 10.5841 54.8854 10.4265L 55.6709 11.975ZM 41.0498 3.64657L 42.309 3.64657L 42.309 1.9321L 44.6822 1.25806L 44.6822 3.64657L 46.9091 3.64657L 46.9091 5.65018L 44.6822 5.65018L 44.6822 9.15125C 44.6822 9.78189 44.7462 10.2351 44.874 10.5083C 45.0018 10.7821 45.2422 10.9187 45.595 10.9187C 45.8379 10.9187 46.0482 10.8938 46.2246 10.8453C 46.4016 10.7968 46.5985 10.724 46.8177 10.6276L 47.2377 12.4493C 46.9091 12.6083 46.5256 12.7423 46.0878 12.8508C 45.6493 12.9593 45.2057 13.0149 44.7551 13.0149C 43.9159 13.0149 43.2984 12.7991 42.9028 12.3683C 42.5071 11.9361 42.309 11.2283 42.309 10.244L 42.309 5.65018L 41.0498 5.65018L 41.0498 3.64657ZM 38.0749 10.2439C 38.0749 10.0014 37.9714 9.8067 37.7643 9.66117C 37.5578 9.51436 37.3022 9.38159 36.9979 9.25904C 36.6937 9.13776 36.3587 9.01457 35.9938 8.88564C 35.6282 8.75798 35.2945 8.58245 34.9903 8.35776C 34.686 8.13245 34.4303 7.84776 34.2233 7.50117C 34.0168 7.15457 33.9133 6.70776 33.9133 6.16074C 33.9133 5.26202 34.1811 4.57521 34.7161 4.10096C 35.2517 3.62734 36.0244 3.38989 37.0343 3.38989C 37.7279 3.38989 38.3549 3.4633 38.9148 3.60883C 39.4741 3.75436 39.9126 3.91904 40.2283 4.10096L 39.6991 5.81415C 39.4191 5.705 39.0669 5.59011 38.6406 5.46755C 38.2149 5.34691 37.7822 5.28691 37.345 5.28691C 36.6387 5.28691 36.2859 5.56011 36.2859 6.10585C 36.2859 6.32479 36.3894 6.50032 36.5965 6.63436C 36.8036 6.7684 37.0586 6.89287 37.3629 7.0084C 37.6671 7.12457 38.0021 7.24904 38.3664 7.38245C 38.732 7.51521 39.0669 7.68883 39.3712 7.90138C 39.6748 8.11393 39.9298 8.39032 40.1369 8.73053C 40.344 9.07202 40.4475 9.50925 40.4475 10.0429C 40.4475 10.9671 40.1522 11.6929 39.5616 12.222C 38.9717 12.7493 38.0864 13.0148 36.9065 13.0148C 36.2616 13.0148 35.6563 12.9318 35.0906 12.7684C 34.5249 12.6037 34.0654 12.4135 33.7119 12.1946L 34.3696 10.4265C 34.6489 10.5841 35.0203 10.7386 35.4831 10.8912C 35.9452 11.0431 36.4201 11.1197 36.9065 11.1197C 37.2593 11.1197 37.5425 11.0527 37.7547 10.9186C 37.9682 10.7846 38.0749 10.5605 38.0749 10.2439ZM 29.9337 12.7601L 29.9337 7.58223C 29.9337 6.84181 29.827 6.30691 29.6142 5.97819C 29.4013 5.65011 29.0395 5.48606 28.5288 5.48606C 28.0782 5.48606 27.6979 5.61691 27.3879 5.87862C 27.0779 6.13968 26.8561 6.46521 26.7219 6.85394L 26.7219 12.7601L 24.3486 12.7601L 24.3486 3.64649L 26.2291 3.64649L 26.5027 4.84776L 26.5762 4.84776C 26.8561 4.45968 27.2262 4.12011 27.689 3.8284C 28.1517 3.53606 28.7474 3.38989 29.478 3.38989C 29.928 3.38989 30.3294 3.45181 30.6822 3.57245C 31.0357 3.69436 31.3335 3.89542 31.5771 4.17372C 31.82 4.45457 32.0028 4.83372 32.1242 5.31308C 32.2463 5.79308 32.307 6.3867 32.307 7.09011L 32.307 12.7601L 29.9337 12.7601ZM 16.5547 8.20274C 16.5547 8.60295 16.5911 8.97444 16.6646 9.31466C 16.7375 9.65487 16.8474 9.95232 16.9932 10.2076C 17.1395 10.463 17.3306 10.6602 17.5678 10.7993C 17.8056 10.9398 18.0887 11.0093 18.4172 11.0093C 19.0379 11.0093 19.5 10.7847 19.8036 10.3347C 20.1079 9.88593 20.26 9.17423 20.26 8.20274C 20.26 7.36466 20.12 6.68678 19.84 6.1704C 19.5607 5.65402 19.0865 5.39551 18.4172 5.39551C 17.833 5.39551 17.376 5.61508 17.0475 6.05168C 16.719 6.48891 16.5547 7.20572 16.5547 8.20274ZM 14.1094 8.20266C 14.1094 6.65925 14.4865 5.47138 15.2414 4.63968C 15.9956 3.80606 17.0547 3.38989 18.4174 3.38989C 19.1474 3.38989 19.7795 3.50542 20.3151 3.73649C 20.8508 3.96691 21.295 4.29308 21.6478 4.71117C 22.0006 5.13181 22.2653 5.63862 22.4417 6.23415C 22.6181 6.82904 22.7069 7.48457 22.7069 8.20266C 22.7069 9.74479 22.3317 10.9333 21.5839 11.765C 20.8361 12.5986 19.7795 13.0148 18.4174 13.0148C 17.6875 13.0148 17.0547 12.8993 16.5191 12.6682C 15.9834 12.4371 15.5367 12.1116 15.1768 11.6929C 14.8182 11.2748 14.5504 10.7667 14.374 10.1705C 14.1976 9.57627 14.1094 8.91947 14.1094 8.20266ZM 9.91169 6.14234L 10.1846 3.60894L 10.076 3.60894L 9.29041 5.65021L 6.57136 10.4081L 5.76792 10.4081L 2.90186 5.63362L 2.09905 3.60894L 2.00765 3.60894L 2.37326 6.12383L 2.37326 12.7602L 0 12.7602L 0 0L 2.28186 0L 5.69505 5.83277L 6.29652 7.29064L 6.37002 7.29064L 6.91779 5.79638L 10.1488 0L 12.4121 0L 12.4121 12.7602L 9.91169 12.7602L 9.91169 6.14234Z"/>
<path id="path2_fill" fill-rule="evenodd" d="M 8.25008 8.47499C 4.94813 8.47499 2.2482 5.90377 2.03955 2.65454C 2.72565 2.80657 3.4209 2.93392 4.12455 3.03569C 4.49258 4.97954 6.19913 6.44999 8.25008 6.44999C 8.67833 6.44999 9.0915 6.38549 9.48075 6.26639L 9.32708 3.50152L 11.4419 4.97834C 11.9079 4.43362 12.2369 3.76852 12.3756 3.03569C 13.0792 2.93392 13.7745 2.80664 14.4606 2.65454C 14.252 5.90377 11.552 8.47499 8.25008 8.47499ZM 16.5 0L 16.4995 0C 16.4046 0.030975 16.3094 0.06135 16.2141 0.091275C 15.5725 0.2928 14.9207 0.470775 14.2591 0.62385C 13.6026 0.7758 12.9367 0.903225 12.2625 1.00545C 10.9539 1.20382 9.61403 1.3068 8.25008 1.3068C 6.88613 1.3068 5.54625 1.20382 4.23765 1.00545C 3.56347 0.903225 2.89755 0.7758 2.24108 0.62385C 1.5795 0.470775 0.9276 0.2928 0.28605 0.091275C 0.190725 0.06135 0.09555 0.030975 0.00075 0L 0 0C 0 0 7.5e-05 2.20747 7.5e-05 2.25C 7.5e-05 6.80632 3.69375 10.5 8.25008 10.5C 12.8048 10.5 16.4974 6.80888 16.5 2.25472L 16.5 0Z"/>
<path id="path3_fill" fill-rule="evenodd" d="M 33.3675 22.1836L 29.3066 19.3485L 29.6292 25.1413C 26.677 26.9393 23.2095 27.9752 19.5001 27.9752C 15.7913 27.9752 12.3245 26.9397 9.37253 25.1424L 9.69525 19.3473L 5.63258 22.1836C 4.23428 20.7693 3.05003 19.1429 2.13428 17.3559C 2.35823 16.4597 2.64885 15.5899 3.00225 14.7529C 3.33195 13.9721 3.71603 13.22 4.1487 12.5004C 3.80903 11.7298 3.52575 10.929 3.3039 10.1029C 2.93055 8.71256 2.7303 7.25141 2.7303 5.74331C 2.7303 4.93939 2.78813 4.14919 2.89755 3.37549L 8.7054 7.43111C 9.28245 6.99416 9.88673 6.59134 10.5155 6.22579C 13.1563 4.69024 16.2252 3.81011 19.5001 3.81011C 22.7749 3.81011 25.8439 4.69024 28.4846 6.22579C 29.1134 6.59134 29.7176 6.99416 30.2948 7.43111L 36.1025 3.37549C 36.2119 4.14919 36.2698 4.93939 36.2698 5.74331C 36.2698 7.25141 36.0695 8.71256 35.6962 10.1028C 35.4743 10.929 35.1911 11.7298 34.8514 12.5004C 35.284 13.22 35.6681 13.9721 35.9978 14.753C 36.3512 15.5899 36.6419 16.4597 36.8658 17.3559C 35.9501 19.1429 34.7658 20.7693 33.3675 22.1836ZM 38.0642 14.4588C 37.7818 13.7366 37.458 13.0352 37.0966 12.3568C 37.8703 10.2994 38.2948 8.07098 38.2948 5.74312C 38.2948 4.51073 38.1749 3.30652 37.9483 2.14035C 37.9453 2.12445 37.9424 2.10855 37.9392 2.09265C 37.7989 1.37978 37.6182 0.68145 37.3997 0L 30.2957 4.96088C 27.1848 2.9517 23.4788 1.78492 19.5 1.78492C 15.5212 1.78492 11.8151 2.9517 8.70428 4.96088L 1.6002 0C 1.38172 0.68145 1.20105 1.37978 1.06065 2.09265C 1.05757 2.10855 1.05465 2.12453 1.0515 2.14042C 0.825075 3.3066 0.70515 4.51073 0.70515 5.74312C 0.70515 8.07098 1.1295 10.2994 1.90328 12.3568C 1.54192 13.0352 1.21815 13.7366 0.935775 14.4588C 0.5412 15.4684 0.226875 16.5181 0 17.6C 0.473775 18.6107 1.02263 19.5792 1.6416 20.4967C 2.32928 21.5161 3.10223 22.4733 3.94973 23.3585C 4.42628 23.8562 4.92645 24.331 5.44852 24.7813L 7.44142 23.3896L 7.2852 26.1995C 7.91573 26.6348 8.5698 27.0385 9.2466 27.4058C 12.295 29.0602 15.7878 30 19.5 30C 23.2129 30 26.7062 29.0599 29.755 27.405C 30.4318 27.0376 31.0859 26.6338 31.7164 26.1984L 31.5603 23.3909L 33.5514 24.7813C 34.0735 24.331 34.5737 23.8562 35.0502 23.3585C 35.8977 22.4734 36.6707 21.5162 37.3583 20.4967C 37.9773 19.5792 38.5261 18.6107 39 17.6C 38.773 16.5181 38.4587 15.4684 38.0642 14.4588Z"/>
</defs>
</svg>
